<mxfile host="app.diagrams.net" modified="2021-09-25T19:37:48.022Z" agent="5.0 (X11)" etag="8sPxrQnSFLSbjGTGbGMN" version="15.3.3" type="github">
  <diagram id="C5RBs43oDa-KdzZeNtuy" name="gitflow">
    <mxGraphModel dx="2347" dy="1188" grid="1" gridSize="10" guides="1" tooltips="1" connect="1" arrows="1" fold="1" page="1" pageScale="1" pageWidth="827" pageHeight="1169" math="0" shadow="0">
      <root>
        <mxCell id="WIyWlLk6GJQsqaUBKTNV-0" />
        <mxCell id="WIyWlLk6GJQsqaUBKTNV-1" parent="WIyWlLk6GJQsqaUBKTNV-0" />
        <mxCell id="FiQ2vP1WOjYI8Nb7Zz3A-235" value="Pool" style="swimlane;childLayout=stackLayout;resizeParent=1;resizeParentMax=0;horizontal=0;startSize=20;horizontalStack=0;hachureGap=4;pointerEvents=0;" vertex="1" parent="WIyWlLk6GJQsqaUBKTNV-1">
          <mxGeometry width="826.67" height="360" as="geometry" />
        </mxCell>
        <mxCell id="FiQ2vP1WOjYI8Nb7Zz3A-236" value="Lane 1" style="swimlane;startSize=20;horizontal=0;" vertex="1" parent="FiQ2vP1WOjYI8Nb7Zz3A-235">
          <mxGeometry x="20" width="806.67" height="120" as="geometry" />
        </mxCell>
        <mxCell id="FiQ2vP1WOjYI8Nb7Zz3A-237" value="Lane 2" style="swimlane;startSize=20;horizontal=0;" vertex="1" parent="FiQ2vP1WOjYI8Nb7Zz3A-235">
          <mxGeometry x="20" y="120" width="806.67" height="120" as="geometry" />
        </mxCell>
        <mxCell id="FiQ2vP1WOjYI8Nb7Zz3A-238" value="Lane 3" style="swimlane;startSize=20;horizontal=0;" vertex="1" parent="FiQ2vP1WOjYI8Nb7Zz3A-235">
          <mxGeometry x="20" y="240" width="806.67" height="120" as="geometry" />
        </mxCell>
      </root>
    </mxGraphModel>
  </diagram>
</mxfile>
